<svg width="275" height="73" viewBox="0 0 275 73" fill="none" xmlns="http://www.w3.org/2000/svg">
<path d="M52.9445 50.9544C52.9445 62.5676 45.2474 71.3793 24.1224 71.3793H7.21752C2.32591 71.3793 0 69.8468 0 67.165C0 65.2494 1.05505 63.717 2.97333 62.0887C4.50795 60.8436 5.65892 59.1196 5.65892 54.7856V17.3599C5.65892 13.1457 4.69978 11.5174 3.16516 10.2483C1.15097 8.62011 0 7.47076 0 5.65096C0 2.77759 2.7815 0.862011 8.36849 0.862011H29.0379C42.0103 0.862011 50.4747 6.89608 50.4747 17.9346C50.4747 25.5251 44.9117 31.2718 36.4473 33.7621C46.0627 35.103 52.9685 40.6582 52.9685 50.9305L52.9445 50.9544ZM17.6721 27.2491C17.6721 29.9309 19.0149 31.1761 22.7556 31.1761C31.6996 31.1761 37.7421 26.6744 37.7421 18.8924C37.7421 12.3794 33.7137 8.81167 26.5921 8.81167C19.4705 8.81167 17.6482 10.4399 17.6482 14.4626V27.2252L17.6721 27.2491ZM40.3558 51.2417C40.3558 42.6935 35.1764 38.3834 25.0815 38.3834C19.5185 38.3834 17.6961 39.8201 17.6961 42.7893V57.7547C17.6961 61.4901 20.094 62.9268 24.9856 62.9268C33.5459 62.9268 40.3558 59.9576 40.3558 51.2178V51.2417Z" fill="black"/>
<path d="M90.8305 67.7876C92.2452 70.9004 94.763 72.5286 97.5205 72.5286C93.7079 72.2652 91.7657 69.6792 90.8305 67.7876Z" fill="black"/>
<path d="M109.462 31.0803L105.337 30.6972C103.515 30.6014 102.748 30.0267 102.748 29.0689C102.748 27.1533 105.05 25.142 108.694 23.7053C107.352 20.9277 106.68 17.7431 106.68 14.5823C106.68 6.44114 111.596 0 120.804 0C131.282 0 134.447 6.92003 134.447 12.1879C134.447 15.6359 133.009 17.9346 130.994 17.9346C127.925 17.9346 125.599 7.9736 120.132 7.9736C118.118 7.9736 116.392 9.88918 116.392 13.1457C116.392 14.9655 116.919 16.7613 117.686 18.4135C118.214 19.5868 119.101 22.0292 120.636 22.1728C121.547 22.2686 122.602 21.8376 123.513 21.7179C124.592 21.5742 125.671 21.5503 126.774 21.5982C128.884 21.7179 130.97 22.1728 132.937 23.0109C133.752 23.3461 134.567 23.7771 135.454 23.9447C136.03 24.0884 137.756 24.2321 137.876 23.4419C137.9 23.1306 137.445 22.4362 137.325 22.1489C137.157 21.67 136.989 21.1911 136.845 20.7122C136.27 18.7248 135.982 16.6655 135.982 14.5823C135.982 6.44114 140.874 0 150.105 0C160.584 0 163.749 6.92003 163.749 12.1879C163.749 15.6359 162.31 17.9346 160.296 17.9346C157.227 17.9346 154.901 7.9736 149.434 7.9736C147.42 7.9736 145.693 9.88918 145.693 13.1457C145.693 14.5823 146.029 15.9951 146.533 17.312C146.988 18.5572 148.163 21.8137 149.41 22.3883C149.961 22.6517 151.544 22.2686 152.191 22.2447C153.51 22.1968 155.021 21.9813 156.316 22.1728C157.275 22.3165 158.234 22.7954 158.69 23.6574C159.241 24.687 158.977 25.9561 158.546 27.0336C157.85 28.8055 156.627 30.5535 154.781 31.0324C153.462 31.3676 151.088 30.6972 150.081 31.8465C149.362 32.6606 150.009 34.0015 150.081 34.9593C150.201 36.5157 150.081 38.0961 150.081 39.6525V60.1731C150.081 62.2084 150.849 62.7831 153.246 63.6451C155.452 64.5071 156.34 65.2734 156.34 66.8058C156.34 70.637 152.575 72.5526 144.422 72.5526C136.27 72.5526 132.313 70.5412 132.313 66.9974C132.313 65.2734 133.176 64.4114 135.478 63.5493C137.78 62.8789 138.739 61.9211 138.739 60.0774V35.1748C138.739 34.1452 139.075 32.9001 138.5 32.0141C137.996 31.2 137.085 30.6493 136.174 30.4577C134.831 30.1943 133.44 30.4817 132.097 30.745C129.676 31.1761 127.206 31.4394 124.736 31.5113C124.089 31.5352 123.441 31.5352 122.818 31.5352C122.41 31.5352 121.379 31.2958 121.043 31.4873C120.468 31.7986 120.78 33.5226 120.78 34.1931V60.1731C120.78 62.2084 121.547 62.7831 123.945 63.6451C126.175 64.5071 127.038 65.2734 127.038 66.8058C127.038 67.4284 126.942 68.0031 126.726 68.5298C126.319 69.5834 125.503 70.4215 124.233 71.068C124.089 71.1398 123.921 71.1877 123.777 71.2595C123.441 71.3793 123.106 71.499 122.698 71.6187C122.362 71.7145 122.026 71.8103 121.619 71.9061C121.331 71.9779 121.043 72.0497 120.732 72.0976C120.276 72.1934 119.773 72.2892 119.221 72.361C114.929 73.0315 108.143 73.2948 97.4965 72.5526C93.6839 72.2892 91.7417 69.7031 90.8065 67.8115C90.6147 67.4284 90.4708 67.0692 90.3749 66.7819C90.303 66.6143 90.255 66.4945 90.231 66.3748C90.1111 65.9917 90.0632 65.7762 90.0632 65.7762C89.7754 64.6269 89.6076 63.3338 89.6076 61.9211C89.6076 60.9633 89.6076 59.9816 89.7035 58.928L88.6484 58.7364C85.3874 68.8172 77.978 72.5526 71.264 72.5526C62.1282 72.5526 57.7162 66.6143 57.7162 57.204C57.7162 50.691 58.2917 34.672 58.2917 31.2C58.2917 29.8591 57.5244 29.1886 55.2224 28.9971C52.321 28.8055 51.3619 28.0393 51.3619 26.0279C51.3619 22.6757 55.5102 19.2995 62.5119 19.2995C68.7703 19.2995 70.8804 21.6221 70.8804 26.1237C70.8804 32.8282 69.5376 46.0697 69.5376 53.1813C69.5376 59.79 72.7987 62.1127 77.0189 62.1127C82.8936 62.1127 88.2648 57.4913 88.2648 50.4995V32.062C88.2648 29.5718 87.2097 28.9971 84.3323 28.614C81.8386 28.3266 80.6876 27.752 80.6876 25.6448C80.6876 22.101 85.1955 19.2995 92.8687 19.2995C98.7434 19.2995 100.278 21.1432 100.278 24.0166C100.278 26.8899 99.6066 28.4224 99.6066 31.5831V51.8643C99.5587 55.0011 99.4388 58.0421 99.9423 61.1549C100.062 61.9929 100.254 62.8789 100.877 63.4775C102.34 64.8902 105.529 64.4114 107.184 63.6212C108.431 63.0226 109.773 61.6098 109.582 60.1252C109.51 59.5266 109.438 59.0238 109.438 58.4012V31.1042L109.462 31.0803Z" fill="black"/>
<path d="M223.503 63.6212C221.106 62.7592 220.338 62.1845 220.338 60.1492V18.1262C220.338 12.571 221.106 9.21873 221.106 6.44114C221.106 2.58603 219.091 0 213.624 0C207.078 0 202.187 2.68181 202.187 6.72847C202.187 8.45249 202.954 9.12295 205.448 9.50606C208.133 9.88918 208.996 10.7512 208.996 13.0499V52.6066C208.996 54.5461 209.356 57.1561 208.948 59.3111C208.661 60.8436 207.989 62.1605 206.503 62.831L204.752 62.9747C198.518 62.9747 198.542 57.8744 198.854 51.7446V51.6488C198.973 47.2669 199.501 42.1667 199.501 37.1383C199.501 27.6322 195.089 19.2755 179.023 19.2755C173.029 19.2755 168.281 20.4728 164.876 22.4123H164.852C160.776 24.711 158.594 28.0153 158.402 31.5113C158.402 31.6789 158.402 31.8704 158.402 32.0381C158.402 35.7974 161.951 38.8623 164.444 38.8623C165.404 38.8623 166.075 38.575 166.171 37.8087C167.25 30.9845 171.086 27.5365 177.321 27.5365C184.442 27.5365 187.512 30.6014 187.512 38.575C187.512 39.8201 187.416 41.6399 187.32 42.5977C184.251 41.8315 180.51 41.4483 176.649 41.4483C165.883 41.4483 156.675 45.6626 156.675 57.2758C156.675 66.8777 163.198 72.5286 171.854 72.5286C179.047 72.5286 185.881 68.1228 187.895 58.4252L188.759 58.6167C188.663 59.4787 188.567 60.7239 188.567 61.9929C188.567 66.734 190.029 69.751 192.427 71.2835C192.787 71.5948 193.171 71.8582 193.602 72.0497C194.633 72.5047 195.832 72.5765 196.959 72.6483C203.457 72.9596 209.956 72.9836 216.43 72.6962C217.053 72.6723 217.725 72.6244 218.3 72.3849C218.3 72.3849 218.316 72.377 218.348 72.361C223.983 71.8821 226.621 70.0623 226.621 66.7819C226.621 65.2494 225.757 64.4832 223.527 63.6212H223.503ZM187.2 47.9853C187.2 58.4252 182.308 64.3874 175.858 64.3874C171.158 64.3874 168.377 60.6281 168.377 56.0307C168.377 50.6671 171.35 47.1232 180.582 47.1232C182.596 47.1232 185.282 47.3148 187.2 47.6979V47.9853Z" fill="black"/>
<path d="M225.23 46.812C225.23 29.9309 235.133 19.2755 249.544 19.2755C263.188 19.2755 272.42 29.5478 272.42 44.9922C272.42 61.8732 262.612 72.5286 248.105 72.5286C234.462 72.5286 225.23 62.2563 225.23 46.812ZM260.406 47.219C260.406 34.0734 255.035 26.9857 247.914 26.9857C241.871 26.9857 237.243 32.8282 237.243 44.633C237.243 57.7787 242.614 64.8663 249.736 64.8663C255.778 64.8663 260.406 59.0238 260.406 47.219Z" fill="black"/>
<path d="M124.256 71.044C125.527 70.3975 126.343 69.5595 126.75 68.5059C126.75 68.5059 127.014 69.8229 124.256 71.044Z" fill="black"/>
<path d="M267.648 23.2503C267.648 23.2503 267.696 23.1067 267.816 23.0348C267.912 22.963 267.96 22.8912 267.96 22.6278V20.0417C267.96 19.8262 267.888 19.7065 267.672 19.7065C267.36 19.7065 267.216 20.0178 267.144 20.377C267.072 20.6164 267 20.8319 266.857 20.8319C266.713 20.8319 266.617 20.6883 266.617 20.2812C266.617 19.8502 266.761 19.3234 267.072 19.3234C267.216 19.3234 267.384 19.4431 267.6 19.4431H268.895C269.11 19.4431 269.254 19.3234 269.422 19.3234C269.734 19.3234 269.878 19.8502 269.878 20.2812C269.878 20.6883 269.758 20.8319 269.638 20.8319C269.494 20.8319 269.422 20.6164 269.35 20.377C269.254 20.0417 269.134 19.7065 268.823 19.7065C268.607 19.7065 268.535 19.8023 268.535 20.0417V22.6278C268.535 22.8912 268.583 22.987 268.679 23.0348C268.799 23.1067 268.847 23.1785 268.847 23.2503C268.847 23.394 268.703 23.5137 268.247 23.5137C267.792 23.5137 267.648 23.3701 267.648 23.2503ZM270.142 23.2503C270.142 23.2503 270.19 23.1067 270.309 23.0348C270.405 22.963 270.453 22.8672 270.453 22.6757V20.1375C270.453 19.922 270.405 19.8502 270.309 19.7784C270.19 19.7065 270.142 19.6347 270.142 19.5629C270.142 19.4192 270.285 19.3234 270.621 19.3234H270.933C271.197 19.3234 271.436 19.4671 271.58 19.7784L272.467 21.6939L273.355 19.7784C273.499 19.4431 273.69 19.3234 273.978 19.3234H274.29C274.674 19.3234 274.745 19.4671 274.745 19.5629C274.745 19.6586 274.697 19.7065 274.578 19.7784C274.482 19.8502 274.434 19.922 274.434 20.1375V22.6038C274.434 22.8672 274.482 22.963 274.578 23.0109C274.721 23.1067 274.745 23.1546 274.745 23.2264C274.745 23.3701 274.602 23.4898 274.05 23.4898C273.57 23.4898 273.427 23.3701 273.427 23.2264C273.427 23.1306 273.475 23.0827 273.594 23.0109C273.69 22.963 273.738 22.8672 273.738 22.6038V19.9699L272.611 22.4362C272.611 22.4362 272.491 22.5799 272.396 22.5799C272.3 22.5799 272.228 22.532 272.156 22.4362L271.029 19.9939V22.6517C271.029 22.8433 271.077 22.9391 271.173 23.0109C271.293 23.1067 271.341 23.1546 271.341 23.2264C271.341 23.3701 271.245 23.4898 270.789 23.4898C270.333 23.4898 270.166 23.3701 270.166 23.2264L270.142 23.2503Z" fill="black"/>
</svg>
